<?xml version="1.0" standalone="no"?>
<!DOCTYPE svg PUBLIC "-//W3C//DTD SVG 20010904//EN"
 "http://www.w3.org/TR/2001/REC-SVG-20010904/DTD/svg10.dtd">
<svg version="1.0" xmlns="http://www.w3.org/2000/svg"
 width="700.000000pt" height="700.000000pt" viewBox="0 0 700.000000 700.000000"
 preserveAspectRatio="xMidYMid meet">
<metadata>
Created by potrace 1.11, written by Peter Selinger 2001-2013
</metadata>
<g transform="translate(0.000000,700.000000) scale(0.100000,-0.100000)"
fill="#000000" stroke="none">
<path d="M3230 5979 c-140 -78 -280 -154 -310 -170 -30 -17 -62 -34 -70 -39
-8 -5 -60 -33 -115 -63 -55 -30 -129 -70 -165 -89 -264 -145 -719 -392 -785
-428 -94 -50 -147 -80 -270 -147 -105 -58 -196 -108 -280 -153 -33 -18 -127
-69 -210 -115 -82 -45 -186 -101 -230 -125 -44 -23 -118 -64 -165 -90 -134
-74 -201 -111 -260 -142 -30 -16 -58 -32 -63 -37 -7 -7 76 -63 118 -80 6 -2
48 -25 95 -51 47 -26 130 -71 184 -100 55 -29 142 -77 194 -107 52 -29 96 -53
98 -53 2 0 68 -35 146 -79 79 -43 179 -97 223 -121 44 -23 94 -50 110 -60 17
-10 59 -33 95 -52 36 -20 234 -128 440 -240 206 -113 407 -222 445 -243 39
-21 93 -50 120 -65 28 -15 75 -41 105 -58 30 -16 220 -120 422 -230 201 -110
375 -203 386 -206 12 -4 37 2 64 17 23 14 174 95 333 182 160 87 310 169 335
183 25 14 68 37 95 52 28 14 75 40 105 57 30 17 111 61 180 98 207 112 234
127 265 145 17 10 64 35 105 57 98 53 185 100 235 128 22 12 65 36 95 52 30
17 105 57 165 90 61 33 139 76 175 95 36 20 88 48 115 63 28 15 77 42 110 60
81 44 146 80 199 110 25 14 48 25 53 25 4 0 8 -447 7 -992 0 -546 2 -998 4
-1005 2 -8 81 -11 293 -11 l289 0 0 1167 0 1166 -147 80 c-81 44 -176 96 -212
116 -36 19 -95 51 -131 71 -36 19 -96 52 -135 73 -38 21 -90 49 -115 63 -25
14 -79 43 -120 65 -41 22 -88 47 -105 57 -16 10 -61 35 -100 55 -128 70 -158
86 -199 109 -23 12 -81 44 -131 71 -49 26 -94 51 -100 55 -5 4 -59 33 -120 65
-60 32 -114 61 -120 65 -5 4 -65 37 -132 74 -264 142 -370 200 -418 226 -27
15 -81 45 -120 65 -38 21 -86 47 -105 58 -19 11 -64 35 -100 55 -36 19 -159
87 -275 150 -243 133 -319 172 -331 171 -5 0 -124 -63 -264 -140z"/>
<path d="M1459 3113 c-3 -219 1 -1114 5 -1122 3 -5 45 -30 94 -56 48 -26 116
-63 152 -83 36 -19 79 -42 95 -52 17 -10 66 -37 110 -60 44 -24 143 -78 220
-120 77 -43 172 -94 210 -115 39 -21 165 -89 280 -153 116 -63 237 -129 270
-147 92 -49 197 -106 230 -125 17 -10 62 -34 100 -55 39 -21 113 -62 166 -91
54 -30 102 -54 108 -54 5 0 79 38 163 84 84 45 180 98 213 116 33 17 134 73
225 122 91 50 194 106 230 126 36 19 135 73 220 120 85 47 180 98 210 115 30
16 208 113 395 215 187 102 350 191 362 197 26 12 24 -62 24 688 0 264 -2 481
-4 483 -4 4 -496 -260 -699 -374 -21 -12 -66 -37 -100 -55 -35 -19 -137 -75
-228 -125 -91 -49 -192 -104 -225 -122 -33 -18 -84 -45 -112 -61 -29 -16 -77
-42 -105 -58 -29 -16 -84 -45 -123 -66 -38 -21 -83 -45 -100 -55 -42 -25 -155
-86 -259 -141 l-88 -46 -137 74 c-75 42 -170 93 -211 115 -41 23 -94 51 -117
64 -24 13 -62 35 -85 48 -24 13 -72 39 -108 58 -36 20 -92 50 -125 68 -92 49
-604 330 -655 358 -25 14 -83 45 -130 70 -47 25 -114 62 -150 82 -36 20 -101
56 -145 80 -44 24 -99 53 -123 66 -23 13 -45 24 -47 24 -3 0 -5 -17 -6 -37z"/>
</g>
</svg>
